<?xml version="1.0" encoding="UTF-8" standalone="no"?>
<!-- Uploaded to: SVG Repo, www.svgrepo.com, Generator: SVG Repo Mixer Tools -->

<svg
   width="800px"
   height="800px"
   viewBox="0 0 24 24"
   fill="none"
   version="1.1"
   id="svg3"
   sodipodi:docname="download.svg"
   inkscape:version="1.3.2 (091e20ef0f, 2023-11-25)"
   xmlns:inkscape="http://www.inkscape.org/namespaces/inkscape"
   xmlns:sodipodi="http://sodipodi.sourceforge.net/DTD/sodipodi-0.dtd"
   xmlns="http://www.w3.org/2000/svg"
   xmlns:svg="http://www.w3.org/2000/svg">
  <defs
     id="defs3" />
  <sodipodi:namedview
     id="namedview3"
     pagecolor="#505050"
     bordercolor="#eeeeee"
     borderopacity="1"
     inkscape:showpageshadow="0"
     inkscape:pageopacity="0"
     inkscape:pagecheckerboard="0"
     inkscape:deskcolor="#505050"
     inkscape:zoom="1.0288404"
     inkscape:cx="311.02979"
     inkscape:cy="466.54468"
     inkscape:window-width="2560"
     inkscape:window-height="1368"
     inkscape:window-x="0"
     inkscape:window-y="0"
     inkscape:window-maximized="1"
     inkscape:current-layer="svg3" />
  <path
     d="m 12.011366,6.46469 v 7.698272 m 0,0 3.29926,-3.29926 m -3.29926,3.29926 -3.2992603,-3.29926"
     stroke="#1C274C"
     stroke-width="1.5"
     stroke-linecap="round"
     stroke-linejoin="round"
     id="path1-3"
     style="fill:none;fill-opacity:1;stroke:#ffffff;stroke-width:1.97956;stroke-dasharray:none;stroke-opacity:1" />
  <path
     d="M 16.41038,17.462222 H 12.011366 7.6123522"
     stroke="#1C274C"
     stroke-width="1.5"
     stroke-linecap="round"
     id="path2-6"
     style="fill:none;fill-opacity:1;stroke:#ffffff;stroke-width:1.97956;stroke-dasharray:none;stroke-opacity:1" />
  <path
     d="m 23.0089,11.963456 c 0,5.184238 0,7.776466 -1.610589,9.386945 -1.610479,1.610589 -4.202708,1.610589 -9.386945,1.610589 -5.1842926,0 -7.7764333,0 -9.3869781,-1.610589 -1.6105558,-1.610479 -1.6105558,-4.202707 -1.6105558,-9.386945 0,-5.1842916 0,-7.7764322 1.6105558,-9.386977 1.6105448,-1.61055585 4.2026855,-1.61055585 9.3869781,-1.61055585 5.184237,0 7.776466,0 9.386945,1.61055585 1.07094,1.0708739 1.429789,2.5757103 1.549992,4.9879644"
     stroke="#1C274C"
     stroke-width="1.5"
     stroke-linecap="round"
     id="path3-7"
     style="fill:none;fill-opacity:1;stroke:#ffffff;stroke-width:1.97956;stroke-dasharray:none;stroke-opacity:1" />
  <path
     d="m 12.01966,6.4840846 v 7.6982734 m 0,0 3.29926,-3.29926 m -3.29926,3.29926 -3.2992599,-3.29926"
     stroke="#1C274C"
     stroke-width="1.64963"
     stroke-linecap="round"
     stroke-linejoin="round"
     id="path1"
     style="fill:none;fill-opacity:1;stroke:#1f284e;stroke-opacity:1" />
  <path
     d="M 16.418673,17.481618 H 12.01966 7.6206467"
     stroke="#1C274C"
     stroke-width="1.64963"
     stroke-linecap="round"
     id="path2"
     style="fill:none;fill-opacity:1;stroke:#1f284e;stroke-opacity:1" />
  <path
     d="m 23.017193,11.982851 c 0,5.184238 0,7.776466 -1.610588,9.386945 -1.610479,1.610589 -4.202707,1.610589 -9.386945,1.610589 -5.1842922,0 -7.7764329,0 -9.3869776,-1.610589 -1.6105559,-1.610479 -1.6105559,-4.202707 -1.6105559,-9.386945 0,-5.184292 0,-7.7764327 1.6105559,-9.3869774 1.6105447,-1.61055585 4.2026854,-1.61055585 9.3869776,-1.61055585 5.184238,0 7.776466,0 9.386945,1.61055585 1.070939,1.0708738 1.429789,2.5757103 1.549992,4.9879644"
     stroke="#1C274C"
     stroke-width="1.64963"
     stroke-linecap="round"
     id="path3"
     style="fill:none;fill-opacity:1;stroke:#1f284e;stroke-opacity:1" />
</svg>
